<?xml version="1.0" encoding="utf-8"?>
<!-- Generator: Adobe Illustrator 27.2.0, SVG Export Plug-In . SVG Version: 6.00 Build 0)  -->
<svg version="1.1" id="Capa_1" xmlns="http://www.w3.org/2000/svg" xmlns:xlink="http://www.w3.org/1999/xlink" x="0px" y="0px"
	 viewBox="0 0 764.28 355.89" style="enable-background:new 0 0 764.28 355.89;" xml:space="preserve">
<g>
	<g>
		<path d="M372.13,131.78c0.17,1.63,0.09,3.44,0,5.16h-26.66c-0.09-1.38-0.17-3.87,0-5.07l7.91-1.46l-4.3-10.92
			c-3.53-0.09-8.69-0.17-12.3-0.17c-4.3,0-8.43,0.09-11.95,0.17c-0.77,2.24-1.46,4.56-2.15,6.88c-0.43,1.55-0.6,2.58-0.6,3.18
			c0,0.86,0.34,1.12,2.49,1.55l5.07,0.69c0.17,1.63,0.09,3.44-0.09,5.16h-22.79c-0.17-1.38-0.17-3.87-0.09-5.07
			c1.46-0.43,3.96-1.03,5.76-1.29c6.11-17.29,16.17-39.39,23.56-52.55c1.38-0.17,6.97-0.17,8.77,0l20.9,50.22
			c0.77,1.72,1.55,2.41,3.61,2.92L372.13,131.78z M346.5,112.95l-8.94-22.7h-0.43c-3.18,6.28-6.79,14.1-10.06,22.7
			c3.01,0.09,6.28,0.09,9.63,0.09C340.82,113.03,343.57,113.03,346.5,112.95z"/>
		<path d="M424.59,136.94h-48.42c-0.26-1.29-0.26-3.96-0.17-5.16l5.68-1.12c1.2-0.26,1.46-0.43,1.46-1.89V93.51
			c0-3.1-0.09-5.76-0.43-8.17c-2.32-0.43-4.82-0.86-6.71-1.46c-0.09-1.2-0.09-3.87,0.17-5.25h26.4c0.17,1.38,0.17,3.96,0.09,5.16
			l-6.45,1.12c-1.12,0.26-1.29,0.52-1.29,1.89v35.17c0,3.1,0.09,5.85,0.34,8.17c5.68-0.17,13.76-0.43,21.16-1.12
			c0.77-4.13,2.06-9.55,2.58-11.61c1.72-0.17,4.3,0,5.85,0.34C425.1,122.41,425.19,130.58,424.59,136.94z"/>
		<path d="M475.58,78.63c0.52,5.33,0.52,12.9,0.09,17.46c-1.46,0.26-4.39,0.43-5.93,0.26c-0.69-2.41-1.72-6.97-2.41-10.58
			c-3.01-0.17-6.88-0.34-12.81-0.43v36.72c0,3.1,0.09,5.85,0.34,8.08c2.75,0.52,5.85,1.03,7.83,1.55c0.09,1.2,0.09,3.96-0.09,5.25
			h-27.95c-0.17-1.29-0.26-3.96-0.09-5.16l6.79-1.12c1.2-0.26,1.29-0.43,1.29-1.89V93.51c0-3.1-0.09-5.76-0.26-8.17
			c-5.59,0.09-9.55,0.26-12.38,0.43c-0.77,3.7-1.81,8.17-2.49,10.58c-1.46,0.17-4.39,0-5.85-0.26c-0.43-4.56-0.43-12.13,0.09-17.46
			H475.58z"/>
		<path d="M542.66,107.27c0,19.87-12.13,31.3-31.73,31.3c-17.54,0-30.36-9.8-30.36-30.27c0-19.78,12.13-31.22,31.65-31.22
			C529.76,77.09,542.66,86.8,542.66,107.27z M530.37,108.73c0-16.34-8.77-24.94-21.33-24.94c-3.53,0-6.62,0.6-9.29,1.98
			c-4.47,4.56-6.88,11.87-6.88,21.07c0,16.43,8.77,24.94,21.33,24.94c3.44,0,6.62-0.69,9.37-2.06
			C527.96,125.25,530.37,117.85,530.37,108.73z"/>
		<path d="M592.46,120.6c0,10.84-7.91,17.97-22.79,17.97c-8.17,0-16.08-1.89-20.73-4.47c-0.09-5.16,0.34-13.07,0.77-16.34
			c1.46-0.26,3.96-0.43,6.02-0.34c0.6,2.75,1.2,6.54,1.81,10.66c3.78,1.98,8.86,2.92,14.36,2.92c3.1,0,5.85-0.69,7.91-1.81
			c1.12-1.55,1.55-3.35,1.55-5.59c0-6.28-4.04-9.03-14.62-13.07c-8.08-3.01-15.91-7.22-15.91-17.54c0-10.06,7.74-15.91,21.41-15.91
			c6.45,0,12.64,0.95,16.17,2.24c0,3.61-0.34,10.23-0.86,14.71c-1.29,0.26-4.21,0.34-5.93,0.17c-0.69-2.49-1.46-6.11-1.98-8.94
			c-2.41-0.77-5.85-1.38-8.94-1.38c-3.35,0-6.02,0.69-7.74,1.46c-0.77,1.72-1.12,3.1-1.12,5.07c0,5.76,4.64,7.83,12.47,10.75
			C585.84,105.55,592.46,110.71,592.46,120.6z"/>
		<path d="M646.72,78.63c23.56,0,36.03,7.91,36.03,29.5c0,21.07-12.04,30.27-35.35,30.27c-6.11,0-19.61-0.52-25.11-1.38
			c-0.26-1.29-0.26-3.87-0.17-5.16l5.68-0.95c1.2-0.34,1.46-0.52,1.46-1.98V93.51c0-3.1-0.09-5.76-0.43-8.17
			c-2.32-0.43-4.82-0.86-6.71-1.46c-0.09-1.2-0.09-3.87,0.17-5.25H646.72z M670.37,109.34c0-17.46-7.4-23.65-23.99-23.65h-5.59
			v34.06c0,4.64,0.09,7.83,0.26,10.75c3.1,0.6,6.36,0.95,9.89,0.95c6.45,0,10.66-0.86,14.28-2.58
			C668.4,124.64,670.37,118.45,670.37,109.34z"/>
		<path d="M736.25,136.94h-47.99c-0.26-1.29-0.26-3.96-0.17-5.16l5.68-1.12c1.2-0.26,1.46-0.43,1.46-1.89V93.51
			c0-3.1-0.09-5.76-0.43-8.17c-2.32-0.43-4.82-0.86-6.71-1.46c-0.09-1.2-0.09-3.87,0.17-5.25h44.29c0.34,3.96,0.17,11.7-0.26,15.74
			c-1.38,0.26-3.87,0.34-5.42,0.17c-0.86-2.58-1.89-6.28-2.41-9.03c-6.45-0.34-11.52-0.52-17.46-0.6v18.75h2.84
			c6.19,0,11.27,0.09,14.79,0.26c0.09,1.2,0,4.73-0.17,5.85c-4.64,0.26-8.94,0.26-14.62,0.26h-2.84v12.04c0,2.92,0,6.11,0.17,8.34
			c6.19,0,13.42-0.17,21.24-0.95c0.69-3.18,1.72-7.31,2.49-9.55c1.63-0.09,4.04,0.09,5.5,0.26
			C736.68,124.13,736.59,131.44,736.25,136.94z"/>
		<path d="M246.46,208.08c0,11.84-8.65,19.65-24.91,19.65c-8.93,0-17.58-2.07-22.65-4.89c-0.09-5.64,0.38-14.29,0.85-17.86
			c1.6-0.28,4.32-0.47,6.58-0.38c0.66,3.01,1.32,7.14,1.97,11.66c4.14,2.16,9.68,3.2,15.7,3.2c3.38,0,6.39-0.75,8.65-1.97
			c1.22-1.69,1.69-3.67,1.69-6.11c0-6.86-4.42-9.87-15.98-14.29c-8.83-3.29-17.39-7.9-17.39-19.17c0-11,8.46-17.39,23.4-17.39
			c7.05,0,13.82,1.03,17.67,2.44c0,3.95-0.38,11.19-0.94,16.07c-1.41,0.28-4.61,0.38-6.49,0.19c-0.75-2.73-1.6-6.67-2.16-9.78
			c-2.63-0.85-6.39-1.5-9.78-1.5c-3.67,0-6.58,0.75-8.46,1.6c-0.85,1.88-1.22,3.38-1.22,5.55c0,6.3,5.08,8.55,13.63,11.75
			C239.22,191.63,246.46,197.27,246.46,208.08z"/>
		<path d="M321.75,193.51c0,21.71-13.25,34.21-34.68,34.21c-19.17,0-33.18-10.72-33.18-33.09c0-21.62,13.25-34.12,34.59-34.12
			C307.65,160.52,321.75,171.14,321.75,193.51z M308.31,195.11c0-17.86-9.59-27.26-23.31-27.26c-3.85,0-7.24,0.66-10.15,2.16
			c-4.89,4.98-7.52,12.97-7.52,23.03c0,17.95,9.59,27.26,23.31,27.26c3.76,0,7.24-0.75,10.25-2.26
			C305.68,213.16,308.31,205.07,308.31,195.11z"/>
		<path d="M385.58,208.83c0,11.28-7.8,18.7-29.23,18.7c-6.96,0-22-0.47-28.57-1.5c-0.28-1.41-0.28-4.23-0.19-5.55l6.2-1.13
			c1.32-0.38,1.6-0.56,1.6-2.16v-38.73c0-3.38-0.09-6.3-0.47-8.93c-2.54-0.47-5.26-0.94-7.33-1.6c-0.09-1.32-0.09-4.23,0.19-5.73
			h28.48c18.23,0,25.19,5.73,25.19,14.94c0,6.86-3.95,11.56-10.34,14.01C380.13,193.51,385.58,199.53,385.58,208.83z M353.34,169.08
			h-5.36v20.11c2.82,0.09,6.02,0.09,8.65,0.09c3.1,0,5.73-0.09,8.27-0.56c2.26-2.07,3.48-5.26,3.48-9.12
			C368.38,172.08,363.96,169.08,353.34,169.08z M358.04,220.21c5.83,0,9.59-0.94,12.6-2.54c1.22-2.63,1.69-5.17,1.69-8.46
			c0-8.65-4.51-13.16-16.07-13.16c-2.91,0-5.64,0.09-8.27,0.28v18.05c0,1.88,0.09,3.76,0.28,5.45
			C351.46,220.11,354.56,220.21,358.04,220.21z"/>
		<path d="M443.2,225.94h-52.45c-0.28-1.41-0.28-4.32-0.19-5.64l6.2-1.22c1.32-0.28,1.6-0.47,1.6-2.07v-38.54
			c0-3.38-0.09-6.3-0.47-8.93c-2.54-0.47-5.26-0.94-7.33-1.6c-0.09-1.32-0.09-4.23,0.19-5.73h48.41c0.38,4.32,0.19,12.78-0.28,17.2
			c-1.5,0.28-4.23,0.38-5.92,0.19c-0.94-2.82-2.07-6.86-2.63-9.87c-7.05-0.38-12.59-0.56-19.08-0.66v20.49h3.1
			c6.77,0,12.31,0.09,16.17,0.28c0.09,1.32,0,5.17-0.19,6.39c-5.08,0.28-9.78,0.28-15.98,0.28h-3.1v13.16c0,3.2,0,6.67,0.19,9.12
			c6.77,0,14.66-0.19,23.22-1.03c0.75-3.48,1.88-7.99,2.73-10.43c1.79-0.09,4.42,0.09,6.02,0.28
			C443.67,211.94,443.58,219.93,443.2,225.94z"/>
		<path d="M516.33,225.28c-1.97,0.94-6.39,1.97-10.62,1.97c-8.18,0-12.78-1.22-23.59-20.87l-3.38-6.02c-3.38,0-6.67-0.28-9.12-0.66
			v9.96c0,3.38,0.09,6.39,0.38,8.93c2.44,0.47,5.17,1.03,7.24,1.6c0.19,1.32,0.09,4.32-0.09,5.73h-28.01
			c-0.28-1.41-0.28-4.32-0.19-5.64l6.2-1.22c1.32-0.28,1.6-0.47,1.6-2.07v-38.54c0-3.38-0.09-6.3-0.47-8.93
			c-2.54-0.47-5.26-0.94-7.33-1.6c-0.09-1.32-0.09-4.23,0.19-5.73h26.6c19.17,0,28.2,5.83,28.2,18.89c0,8.37-4.61,13.44-12.59,15.98
			l1.41,2.54c8.08,13.82,11.47,17.67,17.01,18.89c1.97,0.66,4.04,0.94,6.58,1.13C516.52,221.05,516.52,223.78,516.33,225.28z
			 M469.61,191.35c3.01,0.85,6.96,1.32,11.66,1.32c2.82,0,5.45-0.56,7.52-1.6c1.32-2.07,2.16-4.98,2.16-9.4
			c0-7.71-4.32-11.75-14.76-11.75c-2.26,0-4.51,0.09-6.58,0.28V191.35z M490.57,189.94l0.47-0.47L490.57,189.94z"/>
		<path d="M589.65,220.3c0.19,1.79,0.09,3.76,0,5.64h-29.14c-0.09-1.5-0.19-4.23,0-5.55l8.65-1.6l-4.7-11.94
			c-3.85-0.09-9.49-0.19-13.44-0.19c-4.7,0-9.21,0.09-13.06,0.19c-0.85,2.44-1.6,4.98-2.35,7.52c-0.47,1.69-0.66,2.82-0.66,3.48
			c0,0.94,0.38,1.22,2.73,1.69l5.55,0.75c0.19,1.79,0.09,3.76-0.09,5.64h-24.91c-0.19-1.5-0.19-4.23-0.09-5.55
			c1.6-0.47,4.32-1.13,6.3-1.41c6.67-18.89,17.67-43.05,25.75-57.43c1.5-0.19,7.61-0.19,9.59,0l22.84,54.89
			c0.85,1.88,1.69,2.63,3.95,3.2L589.65,220.3z M561.64,199.72l-9.78-24.81h-0.47c-3.48,6.86-7.42,15.42-11,24.81
			c3.29,0.09,6.86,0.09,10.53,0.09C555.43,199.81,558.44,199.81,561.64,199.72z"/>
		<path d="M665.5,162.21c0.19,1.5,0.19,4.32,0.09,5.64l-6.02,1.22c-1.32,0.28-1.5,0.47-1.6,2.35c-0.38,6.58-0.66,23.31-0.75,41.54
			v12.78c-3.57,0.38-6.77,0.38-9.96,0.38l-36.56-48.22h-0.47v25.38c0.09,5.73,0.28,10.53,0.56,14.76c3.67,0.66,7.61,1.5,10.25,2.16
			c0.09,1.32,0.09,4.32-0.09,5.73h-26.88c-0.28-1.41-0.28-4.32-0.19-5.64l6.02-1.13c1.32-0.28,1.5-0.56,1.6-2.35
			c0.28-4.7,0.75-24.53,0.75-36.56c0-3.38-0.09-6.49-0.09-10.72c-3.67-0.66-6.3-1.13-7.71-1.6c-0.09-1.32,0-4.23,0.09-5.73h19.55
			l34.87,46.06h0.47c0-6.96-0.09-14.76-0.19-21.9c-0.09-6.11-0.28-11.84-0.56-16.26c-3.29-0.75-6.3-1.41-8.18-2.16
			c-0.19-1.32-0.09-4.23,0.09-5.73H665.5z"/>
		<path d="M737.51,220.3c0.19,1.79,0.09,3.76,0,5.64h-29.14c-0.09-1.5-0.19-4.23,0-5.55l8.65-1.6l-4.7-11.94
			c-3.85-0.09-9.49-0.19-13.44-0.19c-4.7,0-9.21,0.09-13.07,0.19c-0.85,2.44-1.6,4.98-2.35,7.52c-0.47,1.69-0.66,2.82-0.66,3.48
			c0,0.94,0.38,1.22,2.73,1.69l5.55,0.75c0.19,1.79,0.09,3.76-0.09,5.64h-24.91c-0.19-1.5-0.19-4.23-0.09-5.55
			c1.6-0.47,4.32-1.13,6.3-1.41c6.67-18.89,17.67-43.05,25.75-57.43c1.5-0.19,7.61-0.19,9.59,0l22.84,54.89
			c0.85,1.88,1.69,2.63,3.95,3.2L737.51,220.3z M709.5,199.72l-9.78-24.81h-0.47c-3.48,6.86-7.43,15.42-11,24.81
			c3.29,0.09,6.86,0.09,10.53,0.09C703.29,199.81,706.3,199.81,709.5,199.72z"/>
	</g>
	<g>
		<path d="M240.68,277.49c0.08,0.59,0.04,1.93-0.04,2.56h-12.35c-0.13-0.63-0.13-1.93-0.08-2.52l2.65-0.55
			c0.5-0.17,0.63-0.21,0.63-0.92v-8.95c-1.76-0.04-4.37-0.08-7.14-0.08c-2.65,0-5.21,0.04-6.89,0.04v5.71
			c0,1.51,0.04,2.86,0.17,3.99c1.05,0.21,2.18,0.46,3.11,0.71c0.04,0.59,0.04,1.93-0.08,2.56H208.3c-0.13-0.63-0.13-1.93-0.08-2.52
			l2.77-0.55c0.59-0.13,0.71-0.21,0.71-0.92v-17.22c0-1.51-0.04-2.81-0.21-3.99c-1.13-0.21-2.35-0.42-3.28-0.71
			c-0.04-0.59-0.04-1.89,0.08-2.56h12.35c0.13,0.67,0.13,1.93,0.08,2.52l-2.65,0.55c-0.55,0.17-0.63,0.25-0.63,0.92v8.07
			c1.68,0,4.24,0.04,6.89,0.04c2.77,0,5.38-0.04,7.14-0.08v-4.75c0-1.51-0.04-2.86-0.17-3.99c-1.05-0.21-2.18-0.42-3.11-0.71
			c-0.04-0.59-0.04-1.89,0.08-2.56h12.35c0.08,0.67,0.13,1.93,0.04,2.52l-2.77,0.55c-0.55,0.17-0.67,0.25-0.67,0.92v17.22
			c0,1.51,0.04,2.86,0.17,3.99C238.54,276.99,239.76,277.24,240.68,277.49z"/>
		<path d="M273.65,265.56c0,9.7-5.92,15.29-15.5,15.29c-8.57,0-14.83-4.79-14.83-14.79c0-9.66,5.92-15.25,15.46-15.25
			C267.35,250.82,273.65,255.57,273.65,265.56z M267.65,266.28c0-7.98-4.28-12.18-10.42-12.18c-1.72,0-3.23,0.29-4.54,0.97
			c-2.18,2.23-3.36,5.8-3.36,10.29c0,8.02,4.29,12.18,10.42,12.18c1.68,0,3.23-0.34,4.58-1.01
			C266.47,274.34,267.65,270.73,267.65,266.28z"/>
		<path d="M297.97,272.07c0,5.29-3.86,8.78-11.13,8.78c-3.99,0-7.86-0.92-10.12-2.18c-0.04-2.52,0.17-6.39,0.38-7.98
			c0.71-0.13,1.93-0.21,2.94-0.17c0.29,1.34,0.59,3.19,0.88,5.21c1.85,0.97,4.33,1.43,7.02,1.43c1.51,0,2.86-0.34,3.86-0.88
			c0.55-0.76,0.76-1.64,0.76-2.73c0-3.07-1.97-4.41-7.14-6.39c-3.95-1.47-7.77-3.53-7.77-8.57c0-4.92,3.78-7.77,10.46-7.77
			c3.15,0,6.17,0.46,7.9,1.09c0,1.76-0.17,5-0.42,7.18c-0.63,0.13-2.06,0.17-2.9,0.08c-0.34-1.22-0.71-2.98-0.97-4.37
			c-1.18-0.38-2.86-0.67-4.37-0.67c-1.64,0-2.94,0.34-3.78,0.71c-0.38,0.84-0.55,1.51-0.55,2.48c0,2.81,2.27,3.82,6.09,5.25
			C294.74,264.72,297.97,267.24,297.97,272.07z"/>
		<path d="M325.69,251.58c0.25,2.6,0.25,6.3,0.04,8.53c-0.71,0.13-2.14,0.21-2.9,0.13c-0.34-1.18-0.84-3.4-1.18-5.17
			c-1.47-0.08-3.36-0.17-6.26-0.21v17.94c0,1.51,0.04,2.86,0.17,3.95c1.34,0.25,2.86,0.5,3.82,0.76c0.04,0.59,0.04,1.93-0.04,2.56
			H305.7c-0.08-0.63-0.13-1.93-0.04-2.52l3.32-0.55c0.59-0.13,0.63-0.21,0.63-0.92v-17.22c0-1.51-0.04-2.81-0.13-3.99
			c-2.73,0.04-4.66,0.13-6.05,0.21c-0.38,1.81-0.88,3.99-1.22,5.17c-0.71,0.08-2.14,0-2.86-0.13c-0.21-2.23-0.21-5.92,0.04-8.53
			H325.69z"/>
		<path d="M351.81,280.06h-23.44c-0.13-0.63-0.13-1.93-0.08-2.52l2.77-0.55c0.59-0.13,0.71-0.21,0.71-0.92v-17.22
			c0-1.51-0.04-2.81-0.21-3.99c-1.13-0.21-2.35-0.42-3.28-0.71c-0.04-0.59-0.04-1.89,0.08-2.56h21.63c0.17,1.93,0.08,5.71-0.13,7.69
			c-0.67,0.13-1.89,0.17-2.65,0.08c-0.42-1.26-0.92-3.07-1.18-4.41c-3.15-0.17-5.63-0.25-8.53-0.29v9.16h1.39
			c3.02,0,5.5,0.04,7.23,0.13c0.04,0.59,0,2.31-0.08,2.86c-2.27,0.13-4.37,0.13-7.14,0.13h-1.39v5.88c0,1.43,0,2.98,0.08,4.07
			c3.02,0,6.55-0.08,10.38-0.46c0.34-1.55,0.84-3.57,1.22-4.66c0.8-0.04,1.97,0.04,2.69,0.13
			C352.02,273.8,351.98,277.37,351.81,280.06z"/>
		<path d="M384.49,279.76c-0.88,0.42-2.86,0.88-4.75,0.88c-3.65,0-5.71-0.55-10.54-9.33l-1.51-2.69c-1.51,0-2.98-0.13-4.07-0.29
			v4.45c0,1.51,0.04,2.86,0.17,3.99c1.09,0.21,2.31,0.46,3.23,0.71c0.08,0.59,0.04,1.93-0.04,2.56h-12.52
			c-0.13-0.63-0.13-1.93-0.08-2.52l2.77-0.55c0.59-0.13,0.71-0.21,0.71-0.92v-17.22c0-1.51-0.04-2.81-0.21-3.99
			c-1.13-0.21-2.35-0.42-3.28-0.71c-0.04-0.59-0.04-1.89,0.08-2.56h11.89c8.57,0,12.6,2.6,12.6,8.44c0,3.74-2.06,6.01-5.63,7.14
			l0.63,1.13c3.61,6.18,5.12,7.9,7.6,8.44c0.88,0.29,1.81,0.42,2.94,0.5C384.57,277.87,384.57,279.09,384.49,279.76z M363.61,264.6
			c1.34,0.38,3.11,0.59,5.21,0.59c1.26,0,2.44-0.25,3.36-0.71c0.59-0.92,0.97-2.23,0.97-4.2c0-3.44-1.93-5.25-6.6-5.25
			c-1.01,0-2.02,0.04-2.94,0.13V264.6z M372.98,263.97l0.21-0.21L372.98,263.97z"/>
		<path d="M398.68,280.06h-12.52c-0.08-0.63-0.08-1.93-0.08-2.52l2.77-0.55c0.59-0.13,0.71-0.21,0.71-0.92v-17.22
			c0-1.51-0.04-2.81-0.21-3.99c-1.13-0.21-2.35-0.42-3.28-0.71c-0.04-0.59-0.04-1.89,0.08-2.56h12.52c0.08,0.67,0.08,1.93,0.04,2.52
			l-2.77,0.55c-0.55,0.17-0.63,0.25-0.63,0.92v17.22c0,1.51,0.04,2.86,0.17,3.99c1.09,0.21,2.31,0.46,3.23,0.71
			C398.81,278.08,398.77,279.43,398.68,280.06z"/>
		<path d="M432.58,277.54c0.08,0.8,0.04,1.68,0,2.52h-13.02c-0.04-0.67-0.08-1.89,0-2.48l3.86-0.71l-2.1-5.33
			c-1.72-0.04-4.24-0.08-6.01-0.08c-2.1,0-4.12,0.04-5.84,0.08c-0.38,1.09-0.71,2.23-1.05,3.36c-0.21,0.76-0.29,1.26-0.29,1.55
			c0,0.42,0.17,0.55,1.22,0.76l2.48,0.34c0.08,0.8,0.04,1.68-0.04,2.52h-11.13c-0.08-0.67-0.08-1.89-0.04-2.48
			c0.71-0.21,1.93-0.5,2.82-0.63c2.98-8.44,7.9-19.24,11.51-25.67c0.67-0.08,3.4-0.08,4.28,0l10.21,24.53
			c0.38,0.84,0.76,1.18,1.76,1.43L432.58,277.54z M420.06,268.34l-4.37-11.09h-0.21c-1.55,3.07-3.32,6.89-4.92,11.09
			c1.47,0.04,3.07,0.04,4.71,0.04C417.29,268.38,418.63,268.38,420.06,268.34z"/>
		<path d="M458.62,251.58c9.16,0,12.69,2.9,12.69,8.95c0,5.67-3.57,9.12-10.54,9.12c-1.97,0-3.78-0.13-5.25-0.34v3.49
			c0,1.47,0.04,2.77,0.13,3.91c1.64,0.21,3.95,0.55,5,0.8c0.04,0.59,0.04,1.93-0.04,2.56h-14.24c-0.13-0.63-0.13-1.93-0.08-2.52
			l2.77-0.55c0.59-0.13,0.71-0.21,0.71-0.92v-17.22c0-1.51-0.04-2.81-0.21-3.99c-1.13-0.21-2.35-0.42-3.28-0.71
			c-0.04-0.59-0.04-1.89,0.08-2.56H458.62z M455.51,265.52c1.64,0.46,3.44,0.67,5.38,0.67c1.64,0,2.77-0.25,3.82-0.76
			c0.55-1.18,0.8-2.9,0.8-4.49c0-4.24-1.93-5.92-6.72-5.92c-1.26,0-2.39,0.04-3.28,0.04V265.52z"/>
		<path d="M501,277.54c0.08,0.8,0.04,1.68,0,2.52h-13.02c-0.04-0.67-0.08-1.89,0-2.48l3.86-0.71l-2.1-5.33
			c-1.72-0.04-4.24-0.08-6.01-0.08c-2.1,0-4.12,0.04-5.84,0.08c-0.38,1.09-0.71,2.23-1.05,3.36c-0.21,0.76-0.29,1.26-0.29,1.55
			c0,0.42,0.17,0.55,1.22,0.76l2.48,0.34c0.08,0.8,0.04,1.68-0.04,2.52h-11.13c-0.08-0.67-0.08-1.89-0.04-2.48
			c0.71-0.21,1.93-0.5,2.81-0.63c2.98-8.44,7.9-19.24,11.51-25.67c0.67-0.08,3.4-0.08,4.29,0l10.21,24.53
			c0.38,0.84,0.76,1.18,1.76,1.43L501,277.54z M488.48,268.34l-4.37-11.09h-0.21c-1.55,3.07-3.32,6.89-4.91,11.09
			c1.47,0.04,3.07,0.04,4.7,0.04C485.71,268.38,487.05,268.38,488.48,268.34z"/>
		<path d="M524.77,251.58c0.25,2.6,0.25,6.3,0.04,8.53c-0.71,0.13-2.14,0.21-2.9,0.13c-0.34-1.18-0.84-3.4-1.18-5.17
			c-1.47-0.08-3.36-0.17-6.26-0.21v17.94c0,1.51,0.04,2.86,0.17,3.95c1.34,0.25,2.86,0.5,3.82,0.76c0.04,0.59,0.04,1.93-0.04,2.56
			h-13.65c-0.08-0.63-0.13-1.93-0.04-2.52l3.32-0.55c0.59-0.13,0.63-0.21,0.63-0.92v-17.22c0-1.51-0.04-2.81-0.13-3.99
			c-2.73,0.04-4.66,0.13-6.05,0.21c-0.38,1.81-0.88,3.99-1.22,5.17c-0.71,0.08-2.14,0-2.86-0.13c-0.21-2.23-0.21-5.92,0.04-8.53
			H524.77z"/>
		<path d="M554.17,277.54c0.08,0.8,0.04,1.68,0,2.52h-13.02c-0.04-0.67-0.08-1.89,0-2.48l3.86-0.71l-2.1-5.33
			c-1.72-0.04-4.24-0.08-6.01-0.08c-2.1,0-4.12,0.04-5.84,0.08c-0.38,1.09-0.71,2.23-1.05,3.36c-0.21,0.76-0.29,1.26-0.29,1.55
			c0,0.42,0.17,0.55,1.22,0.76l2.48,0.34c0.08,0.8,0.04,1.68-0.04,2.52h-11.13c-0.08-0.67-0.08-1.89-0.04-2.48
			c0.71-0.21,1.93-0.5,2.82-0.63c2.98-8.44,7.9-19.24,11.51-25.67c0.67-0.08,3.4-0.08,4.28,0l10.21,24.53
			c0.38,0.84,0.76,1.18,1.76,1.43L554.17,277.54z M541.65,268.34l-4.37-11.09h-0.21c-1.55,3.07-3.32,6.89-4.92,11.09
			c1.47,0.04,3.07,0.04,4.71,0.04C538.88,268.38,540.22,268.38,541.65,268.34z"/>
		<path d="M581.05,269.18v9.33c-2.35,1.26-6.55,2.35-11.47,2.35c-9.54,0-15.16-4.58-15.16-14.74c0-10.04,5.84-15.29,16.21-15.29
			c3.95,0,6.97,0.5,9.49,1.26c0.08,2.27,0.04,5.92-0.21,8.02c-0.63,0.13-2.14,0.17-2.86,0.13c-0.5-1.47-1.01-3.65-1.26-5.25
			c-1.6-0.42-3.82-0.76-6.13-0.76c-2.44,0-4.66,0.46-6.3,1.3c-1.76,2.02-2.98,5-2.98,9.83c0,7.9,3.65,11.93,10.54,11.93
			c1.47,0,3.19-0.21,4.54-0.63v-4.83c0-1.26-0.04-1.76-0.08-2.73c-2.06-0.25-5.25-0.59-6.18-0.8c-0.08-0.67-0.08-1.68,0-2.35
			c1.89-0.25,7.6-0.55,9.54-0.67c0.71,0.21,1.64,0.59,2.23,1.01C581.05,267.24,581.05,268.08,581.05,269.18z"/>
		<path d="M615.7,265.56c0,9.7-5.92,15.29-15.5,15.29c-8.57,0-14.83-4.79-14.83-14.79c0-9.66,5.92-15.25,15.46-15.25
			C609.4,250.82,615.7,255.57,615.7,265.56z M609.69,266.28c0-7.98-4.29-12.18-10.42-12.18c-1.72,0-3.23,0.29-4.54,0.97
			c-2.18,2.23-3.36,5.8-3.36,10.29c0,8.02,4.29,12.18,10.42,12.18c1.68,0,3.23-0.34,4.58-1.01
			C608.52,274.34,609.69,270.73,609.69,266.28z"/>
		<path d="M650.31,251.58c0.08,0.67,0.08,1.93,0.04,2.52l-2.69,0.55c-0.59,0.13-0.67,0.21-0.71,1.05
			c-0.17,2.94-0.29,10.42-0.34,18.57v5.71c-1.6,0.17-3.02,0.17-4.45,0.17l-16.34-21.55h-0.21v11.34c0.04,2.56,0.13,4.71,0.25,6.6
			c1.64,0.29,3.4,0.67,4.58,0.97c0.04,0.59,0.04,1.93-0.04,2.56h-12.01c-0.13-0.63-0.13-1.93-0.08-2.52l2.69-0.5
			c0.59-0.13,0.67-0.25,0.71-1.05c0.13-2.1,0.34-10.96,0.34-16.34c0-1.51-0.04-2.9-0.04-4.79c-1.64-0.29-2.81-0.5-3.44-0.71
			c-0.04-0.59,0-1.89,0.04-2.56h8.74l15.58,20.58h0.21c0-3.11-0.04-6.6-0.08-9.79c-0.04-2.73-0.13-5.29-0.25-7.27
			c-1.47-0.34-2.81-0.63-3.66-0.97c-0.08-0.59-0.04-1.89,0.04-2.56H650.31z"/>
		<path d="M665.3,280.06h-12.52c-0.08-0.63-0.08-1.93-0.08-2.52l2.77-0.55c0.59-0.13,0.71-0.21,0.71-0.92v-17.22
			c0-1.51-0.04-2.81-0.21-3.99c-1.13-0.21-2.35-0.42-3.28-0.71c-0.04-0.59-0.04-1.89,0.08-2.56h12.52c0.08,0.67,0.08,1.93,0.04,2.52
			l-2.77,0.55c-0.55,0.17-0.63,0.25-0.63,0.92v17.22c0,1.51,0.04,2.86,0.17,3.99c1.09,0.21,2.31,0.46,3.23,0.71
			C665.42,278.08,665.38,279.43,665.3,280.06z"/>
		<path d="M693.1,277.62c-2.39,1.76-5.92,3.23-10.84,3.23c-8.53,0-14.33-4.79-14.33-14.53c0-10.29,5.8-15.5,15.84-15.5
			c3.15,0,6.17,0.5,8.44,1.22c0.08,1.6,0.04,5.84-0.25,8.19c-0.63,0.08-2.14,0.17-2.81,0.08c-0.42-1.3-0.92-3.49-1.3-5.46
			c-1.68-0.42-3.45-0.63-5.08-0.63c-2.18,0-4.24,0.42-5.84,1.05c-1.76,2.1-2.98,5.25-2.98,9.79c0,7.94,4.37,11.76,10.8,11.76
			c2.65,0,5.38-0.42,7.6-1.43C692.64,275.94,693.02,276.95,693.1,277.62z"/>
		<path d="M726.66,277.54c0.08,0.8,0.04,1.68,0,2.52h-13.02c-0.04-0.67-0.08-1.89,0-2.48l3.86-0.71l-2.1-5.33
			c-1.72-0.04-4.24-0.08-6.01-0.08c-2.1,0-4.12,0.04-5.84,0.08c-0.38,1.09-0.71,2.23-1.05,3.36c-0.21,0.76-0.29,1.26-0.29,1.55
			c0,0.42,0.17,0.55,1.22,0.76l2.48,0.34c0.08,0.8,0.04,1.68-0.04,2.52h-11.13c-0.08-0.67-0.08-1.89-0.04-2.48
			c0.71-0.21,1.93-0.5,2.81-0.63c2.98-8.44,7.9-19.24,11.51-25.67c0.67-0.08,3.4-0.08,4.29,0l10.21,24.53
			c0.38,0.84,0.76,1.18,1.76,1.43L726.66,277.54z M714.14,268.34l-4.37-11.09h-0.21c-1.55,3.07-3.32,6.89-4.91,11.09
			c1.47,0.04,3.07,0.04,4.7,0.04C711.37,268.38,712.72,268.38,714.14,268.34z"/>
	</g>
	<g>
		<path d="M25.45,207.44c2.68-4.2,7.03-6.54,10.83-9.45c18.72-14.31,37.42-28.64,56.32-42.7c17.33-12.89,36.5-22.33,56.92-29.31
			c11.27-3.85,22.84-6.58,34.39-9.36c1.36-0.33,2.72-0.64,4.04-1.08c1.99-0.66,3.01-2.1,3.19-4.19c0.6-7.04,1.24-14.07,1.85-21.11
			c0.06-0.67,0.1-1.36,0.07-2.03c-0.05-1.34-0.66-1.81-1.96-1.43c-1.41,0.42-2.79,0.95-4.18,1.45c-2.63,0.94-5.25,1.91-7.88,2.82
			c-1.38,0.48-2.89,0.94-3.98-0.45c-1.24-1.58-1.65-3.47-1.04-5.42c0.38-1.2,1.58-1.52,2.69-1.74c3.6-0.71,7.22-1.34,10.82-2.06
			c4.18-0.85,8.4-1.59,12.51-2.7c4.55-1.23,8.58-3.61,12.36-6.43c1.54-1.14,3.11-2.27,4.79-3.16c0.68-0.36,1.85-0.38,2.54-0.04
			c1.56,0.77,3.04,1.77,4.41,2.85c8.03,6.37,17.15,9.88,27.35,10.69c1.19,0.1,2.39,0.26,3.55,0.53c1.46,0.33,2.06,1.27,2.08,2.93
			c0.02,2.05-0.53,3.13-2.01,3.5c-0.88,0.22-1.81,0.21-2.73,0.26c-0.64,0.04-1.28-0.03-1.92,0.02c-1.62,0.12-2.32,0.66-2.35,2.28
			c-0.07,3.51,0.02,7.02,0.06,10.53c0.01,0.96,0.02,1.92,0.07,2.87c0.09,1.79,0.89,2.73,2.66,2.73c3.23,0,6.46-0.13,9.69-0.27
			c6.3-0.27,12.6-0.58,18.9-0.89c5.44-0.27,10.61,3.84,11.59,9.3c0.18,0.99,0.18,2.06,0.04,3.06c-0.37,2.67-1.51,3.61-4.27,3.65
			c-6.63,0.1-13.26,0.14-19.89,0.29c-15.33,0.35-30.66,0.66-45.98,1.17c-7.7,0.25-15.39,0.72-23.06,1.41
			c-10.36,0.93-20.48,3.27-30.48,6.08c-6.34,1.78-12.66,3.61-18.97,5.48c-1.16,0.34-2.24,0.97-3.36,1.46
			c0.03,0.11,0.07,0.22,0.1,0.32c1.86-0.41,3.71-0.82,5.57-1.23c11.5-2.48,22.96-5.23,34.53-7.36c8.03-1.48,16.2-2.39,24.35-3.02
			c9.86-0.77,19.77-1.21,29.66-1.39c7.74-0.14,15.49,0.3,23.23,0.52c6.15,0.17,12.29,0.39,18.44,0.62c2.03,0.08,4.07,0.15,6.08,0.43
			c1.88,0.26,2.59,1.12,2.65,2.69c0.08,2.17-0.71,3.59-2.45,4.01c-1.03,0.24-2.13,0.26-3.2,0.25c-9.78-0.15-19.57-0.14-29.35-0.56
			c-11.07-0.47-22.11-0.33-33.16,0.34c-21.16,1.28-42.13,3.85-62.62,9.55c-18.86,5.25-36.63,13.06-53.74,22.48
			c-17.04,9.39-33.26,20.11-49.39,30.96c-7.16,4.81-14.31,9.63-21.48,14.42c-0.92,0.62-1.93,1.1-2.9,1.65c-0.8,0-1.6,0-2.4,0
			c-1.64-1.17-2.65-2.84-3.6-4.55C25.45,208.56,25.45,208,25.45,207.44z M242.12,98.42c0.01,0,0.01,0,0.02,0
			c0.12-2.39,0.17-4.78,0.38-7.16c0.1-1.15-0.3-1.62-1.39-1.92c-5.04-1.39-9.92-3.23-14.61-5.57c-2.57-1.28-4.09-0.35-4.17,2.52
			c-0.09,3.55-0.19,7.09-0.23,10.64c-0.04,3.51-0.02,7.02,0,10.53c0.01,2.01,0.76,2.72,2.77,2.73c0.28,0,0.56,0.01,0.84-0.01
			c4.33-0.38,8.66-0.75,12.99-1.15c1.87-0.17,2.92-1.34,3.02-3.22C241.85,103.36,241.99,100.89,242.12,98.42z M213.76,80.89
			c-0.29,0.15-0.44,0.2-0.56,0.3c-3.09,2.62-6.61,4.44-10.41,5.76c-2.15,0.74-3.35,2.29-3.68,4.46c-0.99,6.59-1.93,13.18-2.86,19.77
			c-0.24,1.7,0.75,2.78,2.43,2.58c3.84-0.45,7.69-0.93,11.51-1.51c2.75-0.42,3.7-1.59,3.71-4.38c0.03-8.46,0.04-16.93,0.04-25.39
			C213.94,81.98,213.83,81.49,213.76,80.89z"/>
	</g>
</g>
</svg>
